 <svg
      xmlns="http://www.w3.org/2000/svg"
      fill="none"
      viewBox="0 0 49 48"
      strokeWidth="1.5"
      stroke="#ffffff"
    >
      <path
        strokeLinecap="round"
        strokeLinejoin="round"
        d="M21.6221 7.5C19.9625 7.49985 18.321 7.84393 16.8012 8.5105C15.2814 9.17707 13.9163 10.1516 12.7923 11.3726C11.6684 12.5936 10.8098 14.0344 10.2711 15.6041C9.73226 17.1738 9.52491 18.8381 9.6621 20.492C7.4991 21.5055 5.74631 23.2262 4.69306 25.3701C3.6398 27.5141 3.34903 29.953 3.86873 32.2845C4.38844 34.6159 5.68756 36.7005 7.55166 38.1941C9.41576 39.6877 11.7334 40.5011 14.1221 40.5H36.6221C38.6125 40.5006 40.547 39.8414 42.1228 38.6256C43.6987 37.4097 44.8271 35.7057 45.3313 33.7802C45.8356 31.8547 45.6874 29.8164 44.9098 27.9842C44.1323 26.1519 42.7693 24.6291 41.0341 23.654C41.2119 22.5129 41.1239 21.3461 40.7767 20.2446C40.4295 19.1431 39.8327 18.1366 39.0326 17.3037C38.2326 16.4707 37.251 15.8338 36.1644 15.4426C35.0778 15.0513 33.9155 14.9163 32.7681 15.048C31.8776 12.8198 30.3397 10.9097 28.3529 9.56428C26.3661 8.21882 24.0216 7.49979 21.6221 7.5ZM25.6821 18.44C25.4008 18.1591 25.0196 18.0013 24.6221 18.0013C24.2246 18.0013 23.8433 18.1591 23.5621 18.44L17.5621 24.44C17.4147 24.5773 17.2965 24.7429 17.2145 24.9269C17.1326 25.1109 17.0885 25.3095 17.0849 25.511C17.0814 25.7124 17.1184 25.9124 17.1939 26.0992C17.2693 26.286 17.3816 26.4556 17.524 26.5981C17.6665 26.7405 17.8361 26.8528 18.0229 26.9282C18.2097 27.0037 18.4097 27.0407 18.6111 27.0372C18.8125 27.0336 19.0112 26.9895 19.1952 26.9076C19.3792 26.8256 19.5448 26.7074 19.6821 26.56L23.1221 23.12V33C23.1221 33.3978 23.2801 33.7794 23.5614 34.0607C23.8427 34.342 24.2243 34.5 24.6221 34.5C25.0199 34.5 25.4015 34.342 25.6828 34.0607C25.9641 33.7794 26.1221 33.3978 26.1221 33V23.12L29.5621 26.56C29.6994 26.7074 29.865 26.8256 30.049 26.9076C30.233 26.9895 30.4316 27.0336 30.6331 27.0372C30.8345 27.0407 31.0345 27.0037 31.2213 26.9282C31.4081 26.8528 31.5777 26.7405 31.7202 26.5981C31.8626 26.4556 31.9749 26.286 32.0503 26.0992C32.1258 25.9124 32.1628 25.7124 32.1593 25.511C32.1557 25.3095 32.1116 25.1109 32.0297 24.9269C31.9477 24.7429 31.8295 24.5773 31.6821 24.44L25.6821 18.44Z"
        fill="#4ade80"
      />
    </svg>